<svg aria-hidden="true" style="position: absolute; width: 0; height: 0; overflow: hidden;" version="1.1" xmlns="http://www.w3.org/2000/svg" xmlns:xlink="http://www.w3.org/1999/xlink">
<defs>
<symbol id="icon-start_button" viewBox="0 0 32 32">
<path fill="none" stroke="#fff" style="stroke: var(--color1, #fff)" stroke-linejoin="miter" stroke-linecap="butt" stroke-miterlimit="4" stroke-width="1.7778" d="M21.531 11.852h-11.062c-0.873 0-1.58 0.707-1.58 1.58v5.531c0 0.873 0.707 1.58 1.58 1.58h11.062c0.873 0 1.58-0.708 1.58-1.58v-5.531c0-0.873-0.707-1.58-1.58-1.58z"></path>
<path fill="none" stroke="#fff" style="stroke: var(--color1, #fff)" stroke-linejoin="miter" stroke-linecap="butt" stroke-miterlimit="4" stroke-width="1.7778" d="M12.049 11.852v-3.161c0-1.048 0.416-2.053 1.157-2.793s1.746-1.157 2.793-1.157 2.053 0.416 2.793 1.157c0.741 0.741 1.157 1.746 1.157 2.793v3.161"></path>
<path fill="#fff" style="fill: var(--color1, #fff)" d="M17.185 16c0 0.655-0.531 1.185-1.185 1.185s-1.185-0.531-1.185-1.185c0-0.655 0.531-1.185 1.185-1.185s1.185 0.531 1.185 1.185z"></path>
</symbol>
<symbol id="icon-menu_button" viewBox="0 0 52 32">
<path fill="#7f8489" style="fill: var(--color1, #7f8489); stroke: var(--color1, #7f8489)" stroke="#7f8489" stroke-linejoin="miter" stroke-linecap="butt" stroke-miterlimit="4" stroke-width="1.4545" d="M5.818 2.909h40.727c1.607 0 2.909 1.302 2.909 2.909s-1.302 2.909-2.909 2.909h-40.727c-1.607 0-2.909-1.302-2.909-2.909s1.302-2.909 2.909-2.909z"></path>
<path fill="#7f8489" style="fill: var(--color1, #7f8489); stroke: var(--color1, #7f8489)" stroke="#7f8489" stroke-linejoin="miter" stroke-linecap="butt" stroke-miterlimit="4" stroke-width="1.4545" d="M5.818 23.273h17.455c1.607 0 2.909 1.302 2.909 2.909s-1.302 2.909-2.909 2.909h-17.455c-1.607 0-2.909-1.302-2.909-2.909s1.302-2.909 2.909-2.909z"></path>
</symbol>
<symbol id="icon-profile_button" viewBox="0 0 32 32">
<path fill="none" stroke="#7f8489" style="stroke: var(--color1, #7f8489)" stroke-linejoin="round" stroke-linecap="round" stroke-miterlimit="4" stroke-width="3.7647" d="M28.238 30.118v-3.137c0-1.664-0.661-3.26-1.838-4.437s-2.773-1.838-4.437-1.838h-12.549c-1.664 0-3.26 0.661-4.437 1.838s-1.838 2.773-1.838 4.437v3.137"></path>
<path fill="none" stroke="#7f8489" style="stroke: var(--color1, #7f8489)" stroke-linejoin="round" stroke-linecap="round" stroke-miterlimit="4" stroke-width="3.7647" d="M15.694 14.431c3.465 0 6.275-2.809 6.275-6.275s-2.809-6.274-6.275-6.274c-3.465 0-6.274 2.809-6.274 6.274s2.809 6.275 6.274 6.275z"></path>
</symbol>
<symbol id="icon-battery" viewBox="0 0 19 32">
<path fill="#7f8489" style="fill: var(--color1, #7f8489); stroke: var(--color1, #7f8489)" stroke="#7f8489" stroke-linejoin="round" stroke-linecap="round" stroke-miterlimit="4" stroke-width="2.1333" d="M2.133 9.007v18.252c0 1.44 1.114 2.607 2.489 2.607h9.956c1.375 0 2.489-1.167 2.489-2.607v-18.252c0-1.44-1.114-2.607-2.489-2.607h-9.956c-1.375 0-2.489 1.167-2.489 2.607z"></path>
<path fill="none" stroke="#7f8489" style="stroke: var(--color1, #7f8489)" stroke-linejoin="round" stroke-linecap="round" stroke-miterlimit="4" stroke-width="2.1333" d="M12.8 2.133h-6.4"></path>
</symbol>
<symbol id="icon-navigation" viewBox="0 0 32 32">
<path fill="#7f8489" style="fill: var(--color1, #7f8489)" d="M4.211 16.697c-2.242-0.561-2.546-3.623-0.457-4.613l24.478-11.595c2.090-0.99 4.269 1.188 3.279 3.278l-11.595 24.478c-0.989 2.089-4.052 1.786-4.613-0.457l-1.86-7.441c-0.22-0.882-0.909-1.571-1.791-1.791l-7.441-1.86z"></path>
</symbol>
<symbol id="icon-union" viewBox="0 0 16 32">
<path fill="#7f8489" style="fill: var(--color1, #7f8489)" d="M8 0c-1.894 0-3.429 1.535-3.429 3.429v13.341c-2.703 1.284-4.571 4.039-4.571 7.23 0 4.418 3.582 8 8 8s8-3.582 8-8c0-3.191-1.869-5.946-4.571-7.23v-13.341c0-1.894-1.535-3.429-3.429-3.429z"></path>
</symbol>
<symbol id="icon-add_button" viewBox="0 0 32 32">
<path d="M16 31.238c-0.269 0-0.528-0.107-0.718-0.297s-0.297-0.449-0.297-0.718v-28.444c0-0.363 0.194-0.698 0.508-0.88s0.702-0.181 1.016 0c0.314 0.181 0.508 0.517 0.508 0.88v28.444c0 0.269-0.107 0.528-0.297 0.718s-0.449 0.297-0.718 0.297z"></path>
<path d="M30.223 17.016h-28.444c-0.363 0-0.698-0.194-0.88-0.508s-0.181-0.702 0-1.016c0.181-0.314 0.517-0.508 0.88-0.508h28.444c0.363 0 0.698 0.194 0.88 0.508s0.181 0.702 0 1.016c-0.181 0.314-0.517 0.508-0.88 0.508z"></path>
</symbol>
<symbol id="icon-on" viewBox="0 0 29 32">
<path d="M28.239 17.652c0 8.001-6.808 14.459-14.915 13.897-6.913-0.491-12.493-6.106-12.879-13.020-0.386-5.755 2.808-10.809 7.545-13.265 1.053-0.526 2.316 0.211 2.316 1.404v0.211c0 0.597-0.351 1.123-0.877 1.404-3.58 1.895-5.966 5.721-5.685 10.072 0.351 5.264 4.632 9.51 9.861 9.861 6.141 0.386 11.265-4.492 11.265-10.563 0-4.036-2.281-7.545-5.65-9.335-0.562-0.281-0.912-0.877-0.912-1.509 0-1.263 1.334-2.070 2.422-1.474 4.457 2.351 7.51 6.984 7.51 12.318v0zM14.341 0h-0.105c-1.053 0-1.895 0.842-1.895 1.895v11.897c0 1.053 0.842 1.895 1.895 1.895h0.105c1.053 0 1.895-0.842 1.895-1.895l0-11.897c0-1.053-0.842-1.895-1.895-1.895v0z"></path>
</symbol>
<symbol id="icon-car-check" viewBox="0 0 47 32">
<path d="M45.244 10.451c-0.198-0.403-0.608-0.659-1.056-0.659h-4.206c-0.65 0-1.176 0.527-1.176 1.176v2.492h-1.674v-2.498c0-0.648-0.523-1.174-1.171-1.176l-2.593-0.012-1.616-3.665c-0.188-0.426-0.61-0.701-1.076-0.701l-6.317-0v-3.013h3.32c0.65 0 1.176-0.526 1.176-1.176s-0.526-1.176-1.176-1.176l-13.959-0c-0.65 0-1.176 0.526-1.176 1.176s0.527 1.176 1.176 1.176h4.058v3.013l-5.534 0c-0.424 0-0.816 0.229-1.024 0.598l-1.184 2.098h-0.806c-2.132 0-3.867 1.735-3.867 3.867v2.565l-2.716-0c-0.1 0-0.196 0.016-0.289 0.040v-6.313c0-0.65-0.526-1.176-1.176-1.176s-1.176 0.527-1.176 1.176v14.496c0 0.65 0.526 1.176 1.176 1.176s1.176-0.526 1.176-1.176v-5.91c0.093 0.024 0.189 0.040 0.289 0.040h2.716l0 5.703c0 2.16 1.757 3.917 3.917 3.917h3.775l4.443 4.442c0.221 0.221 0.52 0.344 0.832 0.344h17.628c0.65 0 1.176-0.526 1.176-1.176v-3.389l1.674-0.003v2.222c0 0.649 0.525 1.175 1.175 1.176l4.297 0.008c0.447 0 0.855-0.254 1.054-0.654 0.071-0.143 1.73-3.562 1.73-9.674-0.001-5.575-1.744-9.2-1.818-9.351l-0.001 0zM20.13 2.393h1.875v3.013h-1.875v-3.013zM43.486 27.775l-2.328-0.004v-2.225c0-0.313-0.124-0.612-0.345-0.833s-0.52-0.344-0.831-0.344h-0.002l-4.027 0.007c-0.649 0.001-1.175 0.527-1.175 1.176v3.387l-15.964-0-4.443-4.442c-0.221-0.221-0.52-0.344-0.832-0.344h-4.262c-0.863 0-1.564-0.701-1.564-1.564v-10.621c0-0.835 0.679-1.514 1.514-1.514h1.493c0.424 0 0.816-0.229 1.024-0.598l1.184-2.098 16.98 0 1.615 3.661c0.187 0.425 0.607 0.7 1.070 0.702l2.185 0.011v2.504c0 0.65 0.526 1.176 1.176 1.176h4.027c0.65 0 1.176-0.527 1.176-1.176v-2.492h2.246c0.452 1.193 1.304 3.938 1.304 7.658 0 4.050-0.795 6.793-1.222 7.973l0-0z"></path>
</symbol>
<symbol id="icon-car-mileage" viewBox="0 0 42 32">
<path d="M41.741 18.232c-0.016 0.064-0.024 0.131-0.024 0.201v7.214c0 3.38-2.761 6.13-6.154 6.13l-28.692-0c-3.394 0-6.154-2.75-6.154-6.13v-7.441l0.531-0.569c2.004-2.15 4.541-3.723 7.351-4.568 0.737 6.511 6.114 11.58 12.618 11.58s11.881-5.071 12.618-11.582c2.813 0.844 5.34 2.412 7.351 4.571l0.555 0.595z"></path>
<path d="M24.173 15.228c-0.435 1.242-1.597 2.134-2.957 2.134s-2.522-0.892-2.957-2.134h-7.418c1.482 4.466 5.572 7.683 10.376 7.683s8.894-3.218 10.376-7.683h-7.419zM16.872 20.821c-0.958 0-1.737-0.779-1.737-1.737s0.779-1.737 1.737-1.737c0.958 0 1.737 0.779 1.737 1.737s-0.779 1.737-1.737 1.737zM25.559 20.821c-0.958 0-1.737-0.779-1.737-1.737s0.779-1.737 1.737-1.737c0.958 0 1.737 0.779 1.737 1.737s-0.779 1.737-1.737 1.737z"></path>
<path d="M18.37 12.783c-0.102 0.223-0.18 0.459-0.23 0.707h-7.729c-0.107-0.635-0.163-1.287-0.163-1.954 0-1.937 0.47-3.763 1.297-5.362l6.825 6.608z"></path>
<path d="M22.62 14.143c0 0.817-0.63 1.482-1.404 1.482-0.718 0-1.31-0.571-1.392-1.306-0.001-0.024-0.002-0.048-0.006-0.070-0.002-0.036-0.005-0.070-0.005-0.106 0-0.817 0.63-1.481 1.404-1.481s1.404 0.665 1.404 1.481l-0 0z"></path>
<path d="M32.184 11.536c0 0.666-0.056 1.319-0.163 1.954h-7.729c-0.295-1.463-1.562-2.566-3.076-2.566-0.636 0-1.227 0.195-1.722 0.529l-6.479-6.274c1.481-0.441 2.992-0.759 4.516-0.955l0.781 3.185c0.097 0.396 0.452 0.662 0.843 0.662 0.069 0 0.138-0.009 0.208-0.025 0.467-0.115 0.751-0.585 0.637-1.050l-0.721-2.943c1.608-0.109 3.225-0.082 4.829 0.080l-0.702 2.863c-0.114 0.466 0.171 0.936 0.637 1.050 0.070 0.016 0.139 0.025 0.208 0.025 0.391 0 0.746-0.266 0.844-0.662l0.747-3.047c1.323 0.215 2.634 0.522 3.921 0.923l-1.928 3.254c-0.245 0.414-0.109 0.946 0.304 1.19s0.946 0.109 1.19-0.304l1.727-2.913c0.723 1.516 1.131 3.222 1.131 5.025v-0z"></path>
<path d="M28.632 3.166c-1.072-0.268-2.157-0.479-3.25-0.629-0.056-0.013-0.111-0.021-0.166-0.023-3.802-0.502-7.685-0.285-11.418 0.651 1.954-1.863 4.559-3.003 7.417-3.003s5.463 1.14 7.417 3.003h-0z"></path>
</symbol>
<symbol id="icon-car-money" viewBox="0 0 31 32">
<path d="M14.668 15.693v1.538l-1.231-0.923-0.615 0.821 2.051 1.538c0.089 0.067 0.197 0.103 0.308 0.103 0.079 0.001 0.158-0.017 0.229-0.051 0.027-0.015 0.052-0.032 0.076-0.051l0.003 0.004 2.051-1.538-0.615-0.82-1.231 0.919v-1.538h-1.026z"></path>
<path d="M7.488 29.027c0 0.283-0.23 0.513-0.513 0.513s-0.513-0.23-0.513-0.513c0-0.283 0.23-0.513 0.513-0.513s0.513 0.23 0.513 0.513z"></path>
<path d="M25.95 29.027c0 0.283-0.23 0.513-0.513 0.513s-0.513-0.23-0.513-0.513c0-0.283 0.23-0.513 0.513-0.513s0.513 0.23 0.513 0.513z"></path>
<path d="M0.631 28.478l2.564 1.026c0.061 0.024 0.125 0.036 0.191 0.036h1.077c0.158 0.779 0.668 1.44 1.382 1.791s1.549 0.351 2.262 0c0.713-0.351 1.224-1.012 1.382-1.791h13.436c0.158 0.779 0.669 1.44 1.382 1.791s1.549 0.351 2.262 0c0.713-0.351 1.224-1.012 1.382-1.791h0.564c0.136 0 0.267-0.054 0.363-0.15l0.875-0.875h1.326v-1.026h-1.026v-1.285c-0-0.595-0.225-1.169-0.629-1.605s-0.959-0.705-1.552-0.751l-5.814-0.447-3.538-3.097c-0.374-0.327-0.854-0.507-1.351-0.507h-8.653c-0.114 0-0.225 0.038-0.315 0.108l-4.546 3.535-2.993 0.998c-0.209 0.070-0.351 0.266-0.351 0.486v3.077c0 0.21 0.127 0.398 0.322 0.476l-0 0zM6.975 30.565c-0.408 0-0.799-0.162-1.088-0.451s-0.451-0.68-0.451-1.088c0-0.408 0.162-0.799 0.451-1.088s0.68-0.451 1.088-0.451c0.408 0 0.799 0.162 1.088 0.451s0.451 0.68 0.451 1.088c0 0.408-0.162 0.799-0.451 1.088s-0.68 0.451-1.088 0.451zM8.001 26.68v-2.269h5.128v4.103h-3.641c-0.169-0.816-0.723-1.5-1.487-1.834zM8.603 23.386l2.198-2.564h2.328v2.564h-4.526zM20.822 27.059v1.455h-6.667v-4.103h7.006c-0.225 0.864-0.339 1.754-0.339 2.647h-0zM25.437 30.565c-0.408 0-0.799-0.162-1.088-0.451s-0.451-0.68-0.451-1.088c0-0.408 0.162-0.799 0.451-1.088s0.68-0.451 1.088-0.451c0.408 0 0.799 0.162 1.088 0.451s0.451 0.68 0.451 1.088c0 0.408-0.162 0.799-0.451 1.088s-0.68 0.451-1.088 0.451zM28.514 27.488v0.813l-0.212 0.212h-0.352c-0.158-0.779-0.669-1.44-1.382-1.791s-1.549-0.351-2.262 0c-0.713 0.351-1.224 1.012-1.382 1.791h-1.077v-1.455c0.002-0.885 0.129-1.766 0.376-2.615l4.752 0.364v0.117c0 0.544 0.216 1.066 0.601 1.451s0.907 0.601 1.451 0.601v0.513h-0.513zM29.002 25.95c-0.268-0.007-0.522-0.117-0.709-0.309s-0.291-0.449-0.291-0.717v-0.019c0.25 0.059 0.477 0.189 0.655 0.374s0.298 0.418 0.345 0.671v0zM17.841 21.078l2.641 2.308h-6.327v-2.564h3.012c0.248 0.001 0.488 0.092 0.675 0.256h0zM8.69 20.822h0.761l-2.198 2.564h-1.86l3.297-2.564zM1.334 25.294l2.647-0.883h2.994v2.051c-0.591 0.001-1.163 0.205-1.621 0.579s-0.773 0.894-0.892 1.473h-0.978l-2.15-0.86v-2.36z"></path>
<path d="M25.437 8.514h1.026v4.103h-1.026z"></path>
<path d="M25.437 6.463h1.026v1.026h-1.026z"></path>
<path d="M6.975 15.181h1.026v2.564h-1.026z"></path>
<path d="M6.975 13.129h1.026v1.026h-1.026z"></path>
<path d="M6.463 0.822h1.026v1.026h-1.026z"></path>
<path d="M13.129 5.95c0 0.408 0.162 0.799 0.451 1.088s0.68 0.451 1.088 0.451h0.513c0.283 0 0.513 0.23 0.513 0.513s-0.23 0.513-0.513 0.513h-2.051v1.026h2.051c0.55 0 1.057-0.293 1.332-0.769s0.275-1.063 0-1.538c-0.275-0.476-0.783-0.769-1.332-0.769h-0.513c-0.283 0-0.513-0.23-0.513-0.513s0.23-0.513 0.513-0.513h2.051v-1.026h-2.051c-0.408 0-0.799 0.162-1.088 0.451s-0.451 0.68-0.451 1.088v0z"></path>
<path d="M14.668 2.36c-1.224 0-2.398 0.486-3.264 1.352s-1.352 2.039-1.352 3.264 0.486 2.398 1.352 3.264c0.865 0.866 2.039 1.352 3.264 1.352s2.398-0.486 3.264-1.352c0.866-0.865 1.352-2.039 1.352-3.264-0.001-1.224-0.488-2.397-1.353-3.262s-2.038-1.352-3.262-1.353zM14.668 10.565c-0.952 0-1.865-0.378-2.538-1.052s-1.052-1.586-1.052-2.538 0.378-1.865 1.052-2.538c0.673-0.673 1.586-1.051 2.538-1.051s1.865 0.378 2.538 1.051c0.673 0.673 1.052 1.586 1.052 2.538-0.001 0.952-0.38 1.864-1.053 2.537s-1.585 1.052-2.537 1.053v0z"></path>
<path d="M23.102 9.184c0.378-1.448 0.378-2.969 0-4.418-0.062-0.231-0.139-0.457-0.229-0.679v-3.266h-1.026v1.59c-1.177-1.342-2.877-2.109-4.662-2.103h-2.312c-0.035 0-0.069 0.005-0.103 0.005s-0.069-0.005-0.103-0.005c-1.604 0.003-3.154 0.584-4.365 1.636s-2.002 2.506-2.228 4.095c-0.009 0.062-0.021 0.124-0.028 0.187-0.014 0.12-0.019 0.242-0.026 0.363-0.005 0.089-0.017 0.175-0.019 0.265v0.063c0 0.021-0.001 0.039-0.001 0.059 0 0.084 0.009 0.165 0.012 0.248 0.005 0.126 0.008 0.251 0.019 0.376 0.008 0.089 0.023 0.176 0.034 0.264 0.018 0.137 0.036 0.274 0.063 0.41 0.013 0.066 0.031 0.129 0.046 0.194 0.036 0.154 0.072 0.308 0.119 0.462 0.012 0.040 0.027 0.079 0.040 0.118 0.056 0.173 0.117 0.344 0.187 0.513 0.007 0.017 0.016 0.034 0.024 0.051 0.079 0.184 0.165 0.364 0.261 0.541l0.005 0.009c0.296 0.545 0.666 1.047 1.101 1.49 1.251 1.28 2.967 1.998 4.756 1.991v1.068h1.026v-1.068h1.492c1.34 0.015 2.647-0.415 3.718-1.221s1.844-1.945 2.199-3.237l0-0zM14.668 12.617c-0.192 0-0.385-0.010-0.576-0.029-1.851-0.192-3.489-1.284-4.379-2.918l-0.005-0.008c-0.080-0.148-0.154-0.301-0.22-0.456-0.006-0.015-0.014-0.030-0.021-0.046-0.059-0.139-0.11-0.284-0.158-0.429-0.011-0.034-0.025-0.068-0.036-0.103-0.038-0.127-0.069-0.256-0.1-0.386-0.013-0.056-0.028-0.112-0.039-0.17-0.022-0.111-0.036-0.226-0.051-0.34-0.010-0.077-0.023-0.154-0.030-0.231-0.010-0.103-0.012-0.205-0.016-0.308-0.003-0.089-0.009-0.178-0.008-0.268s0.009-0.177 0.013-0.266c0.006-0.107 0.010-0.215 0.023-0.32 0.006-0.047 0.015-0.093 0.022-0.14v0c0.222-1.35 0.913-2.578 1.953-3.467s2.359-1.383 3.727-1.393c1.975 0.074 3.767 1.177 4.724 2.907s0.938 3.834-0.049 5.547c-0.987 1.713-2.799 2.784-4.775 2.823v0zM18.442 12.463c1.81-1.241 2.893-3.294 2.893-5.489s-1.082-4.248-2.893-5.489c1.506 0.359 2.763 1.393 3.405 2.802v0.125h0.051c0.085 0.2 0.155 0.406 0.212 0.615 0.334 1.278 0.334 2.62 0 3.897-0.236 0.866-0.701 1.651-1.347 2.274s-1.448 1.060-2.321 1.264h-0z"></path>
<path d="M24.411 21.89c0.136 0.001 0.266-0.055 0.359-0.154l0.003 0.003 1.538-1.538-0.725-0.725-0.663 0.664v-1.326h-1.026v1.326l-0.663-0.663-0.725 0.725 1.538 1.538c0.096 0.096 0.227 0.15 0.363 0.15h-0z"></path>
<path d="M23.899 16.762h1.026v1.069h-1.026z"></path>
<path d="M23.899 14.668h1.026v1.068h-1.026z"></path>
<path d="M4.924 9.327l-0.663-0.663-0.725 0.725 1.538 1.538c0.096 0.096 0.227 0.15 0.363 0.15 0.136 0.001 0.266-0.055 0.359-0.154l0.003 0.003 1.538-1.538-0.725-0.725-0.663 0.664v-1.326h-1.026l-0 1.326z"></path>
<path d="M4.924 5.95h1.026v1.068h-1.026z"></path>
</symbol>
<symbol id="icon-car-repairs" viewBox="0 0 32 32">
<path d="M15.142 24.759c-1.395 0-2.53 1.135-2.53 2.53s1.135 2.53 2.53 2.53c1.395 0 2.53-1.135 2.53-2.53s-1.135-2.53-2.53-2.53zM15.142 28.807c-0.837 0-1.518-0.681-1.518-1.518s0.681-1.518 1.518-1.518c0.837 0 1.518 0.681 1.518 1.518s-0.681 1.518-1.518 1.518z"></path>
<path d="M31.84 8.567h-7.563c-1.76 0-3.436 0.847-4.48 2.264l-5.44 7.382-2.985 0.398c-1.589 0.212-2.95 1.094-3.819 2.333l-0-12.138c1.255-0.842 2.024-2.265 2.024-3.782 0-1.642-0.872-3.167-2.277-3.98l-0.611-0.354-0.603 3.017-1.064 0.709-1.063-0.708-0.603-3.018-0.611 0.354c-1.404 0.813-2.277 2.338-2.277 3.98 0 1.518 0.769 2.941 2.024 3.782v12.715c-1.255 0.842-2.024 2.265-2.024 3.782 0 1.642 0.872 3.167 2.277 3.98l0.611 0.354 0.603-3.017 1.063-0.708 0.775 0.517c-0.168 0.244-0.269 0.54-0.269 0.859v1.012c0 0.837 0.681 1.518 1.518 1.518h4.312c0.818 1.219 2.209 2.024 3.784 2.024s2.966-0.805 3.784-2.024h12.914v-21.252zM14.916 19.16l5.695-7.729c0.855-1.16 2.225-1.852 3.666-1.852h6.551v1.012h-6.308c-0.963 0-1.879 0.464-2.448 1.241l-2.595 3.539c-1.347 0.502-2.31 1.797-2.31 3.316v4.529c-0.611-0.305-1.296-0.481-2.024-0.481-1.978 0-3.662 1.27-4.288 3.036h-3.302v-1.642c0-0.261 0.025-0.517 0.068-0.768 0.442 0.244 0.935 0.386 1.45 0.386 1.674 0 3.036-1.362 3.036-3.036 0-0.397-0.088-0.781-0.239-1.144l3.049-0.407zM20.708 16.157h0.506c0.558 0 1.012 0.454 1.012 1.012s-0.454 1.012-1.012 1.012h-2.985c0.235-1.153 1.257-2.024 2.479-2.024zM21.214 15.145h-0.317l1.991-2.715c0.38-0.518 0.99-0.827 1.632-0.827h6.308v6.578h-7.871c0.174-0.299 0.281-0.642 0.281-1.012 0-1.116-0.908-2.024-2.024-2.024h-0zM10.845 19.758c0.163 0.295 0.248 0.619 0.248 0.953 0 1.116-0.908 2.024-2.024 2.024-0.418 0-0.816-0.133-1.155-0.371 0.529-1.246 1.598-2.22 2.93-2.606v0zM3.049 26.012l-0.392 1.962c-0.739-0.67-1.177-1.64-1.177-2.669 0-1.257 0.679-2.431 1.771-3.064l0.253-0.146v-13.859l-0.253-0.146c-1.092-0.633-1.771-1.807-1.771-3.064 0-1.029 0.438-1.999 1.176-2.669l0.392 1.962 1.973 1.316 1.973-1.316 0.392-1.962c0.74 0.67 1.177 1.64 1.177 2.669 0 1.257-0.679 2.431-1.771 3.064l-0.253 0.146v17.473l-1.518-1.012-1.973 1.315zM7.046 28.807c-0.279 0-0.506-0.227-0.506-0.506v-1.012c0-0.279 0.227-0.506 0.506-0.506h3.572c-0.019 0.166-0.030 0.335-0.030 0.506 0 0.533 0.097 1.042 0.266 1.518h-3.808zM15.142 30.831c-1.953 0-3.542-1.589-3.542-3.542s1.589-3.542 3.542-3.542c1.953 0 3.542 1.589 3.542 3.542s-1.589 3.542-3.542 3.542zM19.43 28.807c0.169-0.476 0.266-0.985 0.266-1.518 0-1.344-0.589-2.55-1.518-3.385v-4.712h12.65v9.614h-11.398z"></path>
<path d="M25.768 21.723c0 0.837 0.681 1.518 1.518 1.518h1.012c0.837 0 1.518-0.681 1.518-1.518v-1.518h-4.048v1.518zM26.78 21.217h2.024v0.506c0 0.279-0.227 0.506-0.506 0.506h-1.012c-0.279 0-0.506-0.227-0.506-0.506v-0.506z"></path>
<path d="M13.118 8.567h1.309l2.172 2.172c0.227 0.228 0.542 0.358 0.864 0.358 0.673 0 1.221-0.548 1.221-1.221v-1.309h1.518c1.395 0 2.53-1.135 2.53-2.53v-3.036c0-1.395-1.135-2.53-2.53-2.53h-7.084c-1.395 0-2.53 1.135-2.53 2.53v3.036c0 1.395 1.135 2.53 2.53 2.53v-0zM11.6 3.001c0-0.837 0.681-1.518 1.518-1.518h7.084c0.837 0 1.518 0.681 1.518 1.518v3.036c0 0.837-0.681 1.518-1.518 1.518h-2.53v2.321c0 0.171-0.237 0.269-0.358 0.148l-2.469-2.469h-1.727c-0.837 0-1.518-0.681-1.518-1.518v-3.036z"></path>
<path d="M20.054 2.853l-0.716-0.716-3.69 3.69-1.16-1.16-0.716 0.716 1.876 1.876z"></path>
<path d="M4.516 8.061h1.012v1.012h-1.012z"></path>
<path d="M4.516 10.085h1.012v1.012h-1.012z"></path>
<path d="M4.516 12.109h1.012v1.012h-1.012z"></path>
<path d="M20.708 26.783h1.012v1.012h-1.012z"></path>
<path d="M22.732 26.783h1.012v1.012h-1.012z"></path>
<path d="M24.756 26.783h1.012v1.012h-1.012z"></path>
</symbol>
<symbol id="icon-car-service" viewBox="0 0 78 32">
<path d="M69.498 8.464c0.153 0.076 0.457 0.153 0.686 0.305 0.305 0.305 0.457 0.763 0.457 1.449 0 1.067 0.839 1.906 1.906 1.906s1.906-0.839 1.906-1.906c0-2.211-0.839-3.507-1.601-4.193-1.449-1.449-3.355-1.449-3.583-1.449s-0.381 0.076-0.61 0.076l-10.673 3.736c-0.076 0-0.153 0.076-0.153 0.076l-13.494 4.727c-0.763 0.153-1.677 0.305-2.135 0.229-0.381-0.61-0.915-1.753-1.22-2.44s-0.991-1.143-1.753-1.143h-7.319l0.001-3.963h3.278c1.067 0 1.906-0.839 1.906-1.906s-0.991-1.906-2.058-1.906h-10.292c-1.067 0-1.906 0.839-1.906 1.906s0.839 1.906 1.906 1.906h3.278v3.965h-9.148v-1.982c0-0.763-0.457-1.449-1.143-1.753l-11.131-4.804c-0.534-0.229-1.067-0.229-1.601 0s-0.839 0.686-0.991 1.22l-2.515 8.767c-0.305 0.915 0.229 1.906 1.067 2.287l12.427 5.184v11.283c0 1.067 0.839 1.906 1.906 1.906l31.791 0.001c0.61 0 1.143-0.305 1.525-0.763l15.781-21.499 3.507-1.22zM5.61 10.675l1.449-5.032 8.005 3.431v5.489l-9.454-3.888zM47.694 28.133h-28.818v-14.485h19.060c0.381 0.839 0.915 1.83 1.525 2.516 1.372 1.601 4.269 1.143 5.87 0.763 0.076 0 0.076 0 0.153-0.076l14.18-4.955-11.97 16.238z"></path>
<path d="M74.072 16.164c-0.305-0.61-0.915-0.915-1.601-0.915s-1.296 0.305-1.677 0.915c-0.915 1.449-5.413 8.996-3.202 13.113 0.61 1.067 1.906 2.44 4.803 2.44 2.669 0 3.888-1.22 4.498-2.287 2.364-4.117-1.906-11.817-2.821-13.266h0zM73.691 27.371c-0.153 0.229-0.534 0.381-1.22 0.381-0.534 0-1.22-0.076-1.449-0.457-0.534-0.991 0.153-3.507 1.372-6.099 1.144 2.592 1.83 5.261 1.297 6.175l0 0z"></path>
</symbol>
<symbol id="icon-car-notification" viewBox="0 0 33 32">
<path d="M19.158 0.321c-5.037 0-9.12 4.083-9.12 9.12 0 2.883 1.338 5.452 3.427 7.123l-1.005 4.557 4.439-2.844c0.723 0.184 1.479 0.284 2.26 0.284 5.037 0 9.12-4.083 9.12-9.12s-4.083-9.12-9.12-9.12h-0zM24.703 11.327c0 0.745-0.604 1.349-1.349 1.349s-1.349-0.604-1.349-1.349h-6.297c0 0.745-0.604 1.349-1.349 1.349s-1.349-0.604-1.349-1.349h-1.237c-1.012 0-0.313-2.867 1.574-2.867h2.774c0.771-0.971 1.686-1.912 2.342-1.912h4.892l0.642 1.912h3.013l-0.45 2.867h-1.855z"></path>
<path d="M33.019 16.394c0.103-0.711-1.22-1.258-1.22-1.258s-1.648-0.697-3.436-1.437c-0.305 0.636-0.675 1.234-1.1 1.788l3.84 1.621-17.145 10.955-10.463-6.607 9.004-4.436c-0.126-0.109-0.25-0.22-0.37-0.335l-10.237 5.104c-1.092 0.545-1.456 1.095-1.511 1.551l-0.001-0v0.009c-0.010 0.086-0.009 0.17 0 0.248v1.092c-0.071 0.625 0.437 1.070 0.437 1.070s5.158 3.568 7.728 5.271c2.57 1.703 4.899-0.108 4.899-0.108s17.266-11.453 18.96-12.474c0.317-0.191 0.494-0.38 0.572-0.56h0.050v-1.494l-0.006-0zM7.759 26.506c-1.27 0.726-2.486 0.080-2.631 0s-1.119-0.817 0.151-1.603c1.27-0.786 2.474-0.079 2.6 0s1.086 0.911-0.121 1.603v0z"></path>
</symbol>
<symbol id="icon-done" viewBox="0 0 41 32">
<path d="M5.282 15.352c-1.038-1.197-2.874-1.277-3.991-0.239-1.197 1.038-1.277 2.874-0.239 3.991l9.979 11.415c1.118 1.277 3.034 1.277 4.231 0.080l24.268-25.625c1.118-1.118 1.038-2.954-0.080-3.991-1.118-1.118-2.954-1.038-3.991 0.080l-22.113 23.39-8.063-9.1z"></path>
</symbol>
</defs>
</svg>
