<svg aria-hidden="true" style="position: absolute; width: 0; height: 0; overflow: hidden;" version="1.1" xmlns="http://www.w3.org/2000/svg" xmlns:xlink="http://www.w3.org/1999/xlink">
<defs>
<symbol id="icon-start_button" viewBox="0 0 32 32">
<path fill="none" stroke="#fff" style="stroke: var(--color1, #fff)" stroke-linejoin="miter" stroke-linecap="butt" stroke-miterlimit="4" stroke-width="1.7778" d="M21.531 11.852h-11.062c-0.873 0-1.58 0.707-1.58 1.58v5.531c0 0.873 0.707 1.58 1.58 1.58h11.062c0.873 0 1.58-0.708 1.58-1.58v-5.531c0-0.873-0.707-1.58-1.58-1.58z"></path>
<path fill="none" stroke="#fff" style="stroke: var(--color1, #fff)" stroke-linejoin="miter" stroke-linecap="butt" stroke-miterlimit="4" stroke-width="1.7778" d="M12.049 11.852v-3.161c0-1.048 0.416-2.053 1.157-2.793s1.746-1.157 2.793-1.157 2.053 0.416 2.793 1.157c0.741 0.741 1.157 1.746 1.157 2.793v3.161"></path>
<path fill="#fff" style="fill: var(--color1, #fff)" d="M17.185 16c0 0.655-0.531 1.185-1.185 1.185s-1.185-0.531-1.185-1.185c0-0.655 0.531-1.185 1.185-1.185s1.185 0.531 1.185 1.185z"></path>
</symbol>
<symbol id="icon-menu_button" viewBox="0 0 52 32">
<path fill="#7f8489" style="fill: var(--color1, #7f8489); stroke: var(--color1, #7f8489)" stroke="#7f8489" stroke-linejoin="miter" stroke-linecap="butt" stroke-miterlimit="4" stroke-width="1.4545" d="M5.818 2.909h40.727c1.607 0 2.909 1.302 2.909 2.909s-1.302 2.909-2.909 2.909h-40.727c-1.607 0-2.909-1.302-2.909-2.909s1.302-2.909 2.909-2.909z"></path>
<path fill="#7f8489" style="fill: var(--color1, #7f8489); stroke: var(--color1, #7f8489)" stroke="#7f8489" stroke-linejoin="miter" stroke-linecap="butt" stroke-miterlimit="4" stroke-width="1.4545" d="M5.818 23.273h17.455c1.607 0 2.909 1.302 2.909 2.909s-1.302 2.909-2.909 2.909h-17.455c-1.607 0-2.909-1.302-2.909-2.909s1.302-2.909 2.909-2.909z"></path>
</symbol>
<symbol id="icon-profile_button" viewBox="0 0 32 32">
<path fill="none" stroke="#7f8489" style="stroke: var(--color1, #7f8489)" stroke-linejoin="round" stroke-linecap="round" stroke-miterlimit="4" stroke-width="3.7647" d="M28.238 30.118v-3.137c0-1.664-0.661-3.26-1.838-4.437s-2.773-1.838-4.437-1.838h-12.549c-1.664 0-3.26 0.661-4.437 1.838s-1.838 2.773-1.838 4.437v3.137"></path>
<path fill="none" stroke="#7f8489" style="stroke: var(--color1, #7f8489)" stroke-linejoin="round" stroke-linecap="round" stroke-miterlimit="4" stroke-width="3.7647" d="M15.694 14.431c3.465 0 6.275-2.809 6.275-6.275s-2.809-6.274-6.275-6.274c-3.465 0-6.274 2.809-6.274 6.274s2.809 6.275 6.274 6.275z"></path>
</symbol>
<symbol id="icon-battery" viewBox="0 0 19 32">
<path fill="#7f8489" style="fill: var(--color1, #7f8489); stroke: var(--color1, #7f8489)" stroke="#7f8489" stroke-linejoin="round" stroke-linecap="round" stroke-miterlimit="4" stroke-width="2.1333" d="M2.133 9.007v18.252c0 1.44 1.114 2.607 2.489 2.607h9.956c1.375 0 2.489-1.167 2.489-2.607v-18.252c0-1.44-1.114-2.607-2.489-2.607h-9.956c-1.375 0-2.489 1.167-2.489 2.607z"></path>
<path fill="none" stroke="#7f8489" style="stroke: var(--color1, #7f8489)" stroke-linejoin="round" stroke-linecap="round" stroke-miterlimit="4" stroke-width="2.1333" d="M12.8 2.133h-6.4"></path>
</symbol>
<symbol id="icon-navigation" viewBox="0 0 32 32">
<path fill="#7f8489" style="fill: var(--color1, #7f8489)" d="M4.211 16.697c-2.242-0.561-2.546-3.623-0.457-4.613l24.478-11.595c2.090-0.99 4.269 1.188 3.279 3.278l-11.595 24.478c-0.989 2.089-4.052 1.786-4.613-0.457l-1.86-7.441c-0.22-0.882-0.909-1.571-1.791-1.791l-7.441-1.86z"></path>
</symbol>
<symbol id="icon-union" viewBox="0 0 16 32">
<path fill="#7f8489" style="fill: var(--color1, #7f8489)" d="M8 0c-1.894 0-3.429 1.535-3.429 3.429v13.341c-2.703 1.284-4.571 4.039-4.571 7.23 0 4.418 3.582 8 8 8s8-3.582 8-8c0-3.191-1.869-5.946-4.571-7.23v-13.341c0-1.894-1.535-3.429-3.429-3.429z"></path>
</symbol>
<symbol id="icon-add_button" viewBox="0 0 32 32">
<path d="M16 24.8c-0.212 0-0.416-0.084-0.566-0.234s-0.234-0.354-0.234-0.566v-22.4c0-0.286 0.152-0.55 0.4-0.693s0.553-0.143 0.8 0 0.4 0.407 0.4 0.693v22.4c0 0.212-0.084 0.416-0.234 0.566s-0.354 0.234-0.566 0.234z"></path>
<path d="M27.2 13.6h-22.4c-0.286 0-0.55-0.152-0.693-0.4s-0.143-0.553 0-0.8 0.407-0.4 0.693-0.4h22.4c0.286 0 0.55 0.152 0.693 0.4s0.143 0.553 0 0.8-0.407 0.4-0.693 0.4z"></path>
</symbol>
</defs>
</svg>
