<svg aria-hidden="true" style="position: absolute; width: 0; height: 0; overflow: hidden;" version="1.1" xmlns="http://www.w3.org/2000/svg" xmlns:xlink="http://www.w3.org/1999/xlink">
<defs>
<symbol id="icon-start_button" viewBox="0 0 32 32">
<path fill="none" stroke="#fff" style="stroke: var(--color1, #fff)" stroke-linejoin="miter" stroke-linecap="butt" stroke-miterlimit="4" stroke-width="1.7778" d="M21.531 11.852h-11.062c-0.873 0-1.58 0.707-1.58 1.58v5.531c0 0.873 0.707 1.58 1.58 1.58h11.062c0.873 0 1.58-0.708 1.58-1.58v-5.531c0-0.873-0.707-1.58-1.58-1.58z"></path>
<path fill="none" stroke="#fff" style="stroke: var(--color1, #fff)" stroke-linejoin="miter" stroke-linecap="butt" stroke-miterlimit="4" stroke-width="1.7778" d="M12.049 11.852v-3.161c0-1.048 0.416-2.053 1.157-2.793s1.746-1.157 2.793-1.157 2.053 0.416 2.793 1.157c0.741 0.741 1.157 1.746 1.157 2.793v3.161"></path>
<path fill="#fff" style="fill: var(--color1, #fff)" d="M17.185 16c0 0.655-0.531 1.185-1.185 1.185s-1.185-0.531-1.185-1.185c0-0.655 0.531-1.185 1.185-1.185s1.185 0.531 1.185 1.185z"></path>
</symbol>
<symbol id="icon-menu_button" viewBox="0 0 52 32">
<path fill="#7f8489" style="fill: var(--color1, #7f8489); stroke: var(--color1, #7f8489)" stroke="#7f8489" stroke-linejoin="miter" stroke-linecap="butt" stroke-miterlimit="4" stroke-width="1.4545" d="M5.818 2.909h40.727c1.607 0 2.909 1.302 2.909 2.909s-1.302 2.909-2.909 2.909h-40.727c-1.607 0-2.909-1.302-2.909-2.909s1.302-2.909 2.909-2.909z"></path>
<path fill="#7f8489" style="fill: var(--color1, #7f8489); stroke: var(--color1, #7f8489)" stroke="#7f8489" stroke-linejoin="miter" stroke-linecap="butt" stroke-miterlimit="4" stroke-width="1.4545" d="M5.818 23.273h17.455c1.607 0 2.909 1.302 2.909 2.909s-1.302 2.909-2.909 2.909h-17.455c-1.607 0-2.909-1.302-2.909-2.909s1.302-2.909 2.909-2.909z"></path>
</symbol>
<symbol id="icon-profile_button" viewBox="0 0 32 32">
<path fill="none" stroke="#7f8489" style="stroke: var(--color1, #7f8489)" stroke-linejoin="round" stroke-linecap="round" stroke-miterlimit="4" stroke-width="3.7647" d="M28.238 30.118v-3.137c0-1.664-0.661-3.26-1.838-4.437s-2.773-1.838-4.437-1.838h-12.549c-1.664 0-3.26 0.661-4.437 1.838s-1.838 2.773-1.838 4.437v3.137"></path>
<path fill="none" stroke="#7f8489" style="stroke: var(--color1, #7f8489)" stroke-linejoin="round" stroke-linecap="round" stroke-miterlimit="4" stroke-width="3.7647" d="M15.694 14.431c3.465 0 6.275-2.809 6.275-6.275s-2.809-6.274-6.275-6.274c-3.465 0-6.274 2.809-6.274 6.274s2.809 6.275 6.274 6.275z"></path>
</symbol>
</defs>
</svg>
