<?xml version="1.0" encoding="UTF-8"?>
<svg width="51px" height="49px" viewBox="0 0 51 49" version="1.1" xmlns="http://www.w3.org/2000/svg" xmlns:xlink="http://www.w3.org/1999/xlink">
    <title>car-notification</title>
    <g id="Page-1" stroke="none" stroke-width="1" fill="none" fill-rule="evenodd">
        <g id="car-notification" transform="translate(0.570006, 0.492000)" fill="#000000" fill-rule="nonzero">
            <path d="M28.7657156,-2.85554409e-15 C21.0529952,-2.85554409e-15 14.8003125,6.25228082 14.8003125,13.9654031 C14.8003125,18.3794752 16.8497103,22.3134991 20.0475867,24.8724834 L18.5087801,31.8508647 L25.3058121,27.4964721 C26.4125954,27.7786536 27.5711211,27.9309268 28.7658161,27.9309268 C36.4785365,27.9309268 42.7312192,21.6786459 42.7312192,13.9655237 C42.7316116,6.25240139 36.4792398,-2.85554409e-15 28.7658161,-2.85554409e-15 L28.7657156,-2.85554409e-15 Z M37.2566807,16.852926 C37.2566807,17.9941707 36.3316486,18.9192028 35.1904039,18.9192028 C34.0491592,18.9192028 33.124127,17.9941707 33.124127,16.852926 L23.4816693,16.852926 C23.4816693,17.9941707 22.5566371,18.9192028 21.4153924,18.9192028 C20.2741477,18.9192028 19.3491156,17.9941707 19.3491156,16.852926 L17.4550452,16.852926 C15.9051869,16.852926 16.9754592,12.4620626 19.8655341,12.4620626 L24.1139303,12.4620626 C25.2944589,10.9749984 26.6959223,9.5346529 27.7002257,9.5346529 L35.1904039,9.5346529 L36.1727343,12.4620626 L40.7865418,12.4620626 L40.0977661,16.852926 L37.2567611,16.852926 L37.2566807,16.852926 Z" id="Shape"></path>
            <path d="M49.9901142,24.6110591 C50.1478831,23.5223605 48.1219652,22.6840344 48.1219652,22.6840344 C48.1219652,22.6840344 45.598447,21.6173388 42.8610271,20.4839308 C42.3939999,21.457239 41.8272859,22.3728772 41.177342,23.2217526 L47.0568772,25.703676 L20.8029241,42.4792397 L4.78189404,32.3618578 L18.5694643,25.569146 C18.37637,25.4027467 18.1868123,25.2320172 18.0023584,25.0565856 L2.32694698,32.8716854 C0.654313661,33.7056712 0.0977069476,34.5490409 0.0126084122,35.247311 L0.0110385602,35.2469186 L0.0110385602,35.2610467 C-0.00387528465,35.3933061 -0.00348244489,35.5208535 0.0110385602,35.6413478 L0.0110385602,37.3136797 C-0.0972787137,38.2712843 0.680192356,38.9525549 0.680192356,38.9525549 C0.680192356,38.9525549 8.57767804,44.4160416 12.5136109,47.0231513 C16.4496442,49.630261 20.0147404,46.8583193 20.0147404,46.8583193 C20.0147404,46.8583193 46.4535592,29.3211891 49.0467035,27.756863 C49.5317852,27.4640818 49.8025835,27.1752291 49.9230778,26.8993269 L50,26.8993269 L50,24.6113117 L49.9901142,24.6110591 Z M11.3109712,40.0945718 C9.36636413,41.2059768 7.50364058,40.2174171 7.2827059,40.0945718 C7.06175112,39.9721183 5.56958296,38.8442161 7.51426032,37.6404787 C9.45886735,36.4368418 11.3027024,37.5192108 11.4962087,37.6404787 C11.6896948,37.7617467 13.1586945,39.0357129 11.3109611,40.0945718 L11.3109712,40.0945718 Z" id="Shape"></path>
        </g>
    </g>
</svg>