<?xml version="1.0" encoding="UTF-8"?>
<svg width="51px" height="21px" viewBox="0 0 51 21" version="1.1" xmlns="http://www.w3.org/2000/svg" xmlns:xlink="http://www.w3.org/1999/xlink">
    <title>car-service</title>
    <g id="Page-1" stroke="none" stroke-width="1" fill="none" fill-rule="evenodd">
        <g id="car-service" transform="translate(0.923037, 0.739005)" fill="#000000" fill-rule="nonzero">
            <path d="M44.6850324,4.81562366 C44.7851937,4.86552922 44.985168,4.915785 45.1352358,5.0155979 C45.33521,5.21557214 45.4353713,5.51605615 45.4353713,5.96628631 C45.4353713,6.66670986 45.985736,7.21707456 46.6861596,7.21707456 C47.3865831,7.21707456 47.9369478,6.66670986 47.9369478,5.96628631 C47.9369478,4.51555063 47.3865831,3.66465725 46.886107,3.21446282 C45.9354186,2.26377441 44.6846303,2.26377441 44.5346251,2.26377441 C44.3845573,2.26377441 44.284396,2.31367996 44.1343282,2.31367996 L37.1300927,4.76531428 C37.0801871,4.76531428 37.0299313,4.81521984 37.0299313,4.81521984 L28.1742612,7.91708536 C27.6738029,8.01724669 27.0735675,8.11705959 26.7733783,8.06715314 C26.5231492,7.66685623 26.1731072,6.91651729 25.9727934,6.4659655 C25.7728192,6.01576214 25.3222763,5.71563549 24.8221576,5.71563549 L20.018952,5.71563549 L20.01965,3.11462133 L22.1708271,3.11462133 C22.8712506,3.11462133 23.4216153,2.56425663 23.4216153,1.86383308 C23.4216153,1.16340952 22.7714467,0.613044825 22.071032,0.613044825 L15.3165968,0.613044825 C14.6161733,0.613044825 14.0658086,1.16340952 14.0658086,1.86383308 C14.0658086,2.56425663 14.6161733,3.11462133 15.3165968,3.11462133 L17.4677739,3.11462133 L17.4677739,5.71635023 L11.4640796,5.71635023 L11.4640796,4.41561979 C11.4640796,3.91516154 11.1639441,3.46493138 10.7137496,3.26498394 L3.40896758,0.112550841 C3.05857712,-0.0375169469 2.70854403,-0.0375169469 2.35812676,0.112550841 C2.0077095,0.262618628 1.80776206,0.562754203 1.70760966,0.913135729 L0.0568371969,6.666583 C-0.143137042,7.26685415 0.206904984,7.91737125 0.757260749,8.16761824 L8.91248949,11.5695836 L8.91248949,18.9741607 C8.91248949,19.6745843 9.46285419,20.224949 10.1632777,20.224949 L31.0264258,20.2252979 C31.4267227,20.2252979 31.7767558,20.0253237 32.026967,19.7248397 L42.3834937,5.61594821 L44.6850324,4.81562366 Z M2.75861022,6.26635935 L3.70929863,2.96418902 L8.96269863,5.21551853 L8.96269863,8.8177887 L2.75861022,6.26635935 Z M30.3760148,17.7235797 L11.4640964,17.7235797 L11.4640964,8.21758902 L23.971979,8.21758902 C24.2222081,8.76795372 24.5722501,9.41843508 24.9725202,9.86862951 C25.8729091,10.9194703 27.7741966,10.6189595 28.8250374,10.3690878 C28.8749429,10.3690878 28.8749429,10.3690878 28.9251987,10.3191822 L38.2310633,7.06731143 L30.3760148,17.7235797 Z" id="Shape"></path>
            <path d="M47.6869242,9.86880819 C47.48695,9.46851128 47.086653,9.26853704 46.6360834,9.26853704 C46.18588,9.26853704 45.785592,9.46851128 45.5353897,9.86880819 C44.9351186,10.8194966 41.9829724,15.7723501 43.4340655,18.4742314 C43.8343624,19.1746549 44.6848537,20.075419 46.5861412,20.075419 C48.3374234,20.075419 49.1376599,19.2748341 49.5379121,18.5743838 C51.0891576,15.8725025 48.2871239,10.8194073 47.6868348,9.86880819 L47.6869242,9.86880819 Z M47.4366951,17.2234431 C47.3365337,17.3735109 47.0863046,17.4736722 46.6361102,17.4736722 C46.2857197,17.4736722 45.8355253,17.4237667 45.6854218,17.1735367 C45.3350313,16.5230196 45.7855831,14.8719076 46.5858106,13.1709249 C47.3368375,14.8719076 47.7870141,16.6231898 47.4366504,17.2233895 L47.4366951,17.2234431 Z" id="Shape"></path>
        </g>
    </g>
</svg>