<?xml version="1.0" encoding="UTF-8"?>
<svg width="51px" height="52px" viewBox="0 0 51 52" version="1.1" xmlns="http://www.w3.org/2000/svg" xmlns:xlink="http://www.w3.org/1999/xlink">
    <title>car-money</title>
    <g id="Page-1" stroke="none" stroke-width="1" fill="none" fill-rule="evenodd">
        <g id="car-money" transform="translate(0.501895, 0.501823)" fill="#000000" fill-rule="nonzero">
            <path d="M23.3332108,24.9998976 L23.3332108,27.4998976 L21.3332108,25.9998976 L20.3332108,27.3332376 L23.6665536,29.8332447 C23.8108969,29.9415021 23.9861259,29.9999436 24.166555,29.9999436 C24.2956506,30.0010279 24.4228796,29.9727536 24.5389561,29.9165783 C24.5824829,29.8923963 24.6237773,29.8644943 24.6624707,29.8332447 L24.666563,29.8391971 L27.9999058,27.33919 L26.999903,26.0058528 L24.9998973,27.4999523 L24.9998973,24.9998976 L23.3332108,24.9998976 Z" id="Path"></path>
            <path d="M11.6665194,46.6666259 C11.6665194,47.1268177 11.2933755,47.4999616 10.8331837,47.4999616 C10.3729919,47.4999616 9.99984802,47.1268177 9.99984802,46.6666259 C9.99984802,46.2064342 10.3729919,45.8332902 10.8331837,45.8332902 C11.2933755,45.8332902 11.6665194,46.2064342 11.6665194,46.6666259" id="Path"></path>
            <path d="M41.6666048,46.6666259 C41.6666048,47.1268177 41.2934609,47.4999616 40.8332691,47.4999616 C40.3730774,47.4999616 39.9999334,47.1268177 39.9999334,46.6666259 C39.9999334,46.2064342 40.3730774,45.8332902 40.8332691,45.8332902 C41.2934609,45.8332902 41.6666048,46.2064342 41.6666048,46.6666259" id="Path"></path>
            <path d="M0.523249609,45.7742424 L4.68992814,47.4409139 C4.7885189,47.4799768 4.89379539,47.5000655 4.99982426,47.5000655 L6.74982924,47.5000655 C7.00689664,48.7656881 7.83611805,49.840834 8.99535944,50.4104547 C10.1542199,50.9800277 11.5121285,50.9800277 12.670989,50.4104547 C13.8302304,49.8408816 14.6594708,48.7656881 14.9165192,47.5000655 L36.7499147,47.5000655 C37.0069821,48.7656881 37.8362035,49.840834 38.9954449,50.4104547 C40.1543053,50.9800277 41.5122139,50.9800277 42.6710744,50.4104547 C43.8303158,49.8408816 44.6595562,48.7656881 44.9166046,47.5000655 L45.8332739,47.5000655 C46.0542554,47.5000655 46.2663132,47.4122671 46.4225612,47.2560171 L47.844851,45.8333464 L50,45.8333464 L50,44.166675 L48.3333286,44.166675 L48.3333286,42.0784786 C48.3329566,41.1112377 47.9680037,40.179616 47.310659,39.4698045 C46.6536667,38.7599834 45.7526546,38.3243727 44.7883661,38.2498963 L35.3400535,37.5233323 L29.5900371,32.490937 L29.5900371,32.490565 C28.9817783,31.9593159 28.2016522,31.6665341 27.3943166,31.6665341 L13.3333242,31.6665341 C13.148057,31.6665341 12.9679993,31.7286619 12.8217894,31.842506 L5.43414931,37.5872843 L0.56994498,39.2096699 C0.22991544,39.3231368 0,39.6412139 0,39.9998531 L0,44.9998673 C0,45.3406397 0.206848708,45.6471929 0.523440086,45.7740504 L0.523249609,45.7742424 Z M10.8328028,49.1667283 C10.169858,49.1667283 9.53365622,48.9033371 9.06498821,48.4345834 C8.59632021,47.9658296 8.33284327,47.3296278 8.33284327,46.6667688 C8.33284327,46.0039098 8.5962345,45.3676222 9.06498821,44.8989542 C9.53374193,44.4302862 10.1699437,44.1668093 10.8328028,44.1668093 C11.4956618,44.1668093 12.1319493,44.4302005 12.6006173,44.8989542 C13.0692853,45.367708 13.3327623,46.0039098 13.3327623,46.6667688 C13.3327623,47.3296278 13.069371,47.9659154 12.6006173,48.4345834 C12.1318636,48.9032514 11.4956618,49.1667283 10.8328028,49.1667283 Z M12.4994742,42.8534722 L12.4994742,39.1666998 L20.8328312,39.1666998 L20.8328312,45.8333855 L14.9161477,45.8333855 C14.6412231,44.507096 13.7405253,43.3962357 12.4994742,42.8534722 Z M13.4778579,37.5000284 L17.0496776,33.3333499 L20.8328312,33.3333499 L20.8328312,37.5000284 L13.4778579,37.5000284 Z M33.3331525,43.4684264 L33.3331525,45.8333855 L22.4997884,45.8333855 L22.4997884,39.1666998 L33.8845827,39.1666998 C33.5185055,40.5710848 33.3332383,42.0168032 33.3336097,43.4684264 L33.3331525,43.4684264 Z M40.8331739,49.1667283 C40.1702292,49.1667283 39.5340273,48.9033371 39.0653593,48.4345834 C38.5966913,47.9658296 38.3332144,47.3296278 38.3332144,46.6667688 C38.3332144,46.0039098 38.5966056,45.3676222 39.0653593,44.8989542 C39.5341131,44.4302862 40.1703149,44.1668093 40.8331739,44.1668093 C41.4960329,44.1668093 42.1323205,44.4302005 42.6009885,44.8989542 C43.0696565,45.367708 43.3331334,46.0039098 43.3331334,46.6667688 C43.3331334,47.3296278 43.0697422,47.9659154 42.6009885,48.4345834 C42.1322347,48.9032514 41.4960329,49.1667283 40.8331739,49.1667283 Z M45.8331881,44.1667141 L45.8331881,45.4885273 L45.4883205,45.833395 L44.9165189,45.833395 C44.6594515,44.5677723 43.8302301,43.4926264 42.6709887,42.9230058 C41.5121282,42.3534327 40.1542196,42.3534327 38.9953591,42.9230058 C37.8361177,43.4925788 37.0068773,44.5677723 36.7498289,45.833395 L34.999824,45.833395 L34.999824,43.4684359 C35.0035442,42.0301461 35.2096436,40.5993801 35.6114352,39.2184238 L43.3331715,39.8099398 L43.3331715,40.0000451 C43.3331715,40.8839714 43.684363,41.7318595 44.3093648,42.3571946 C44.934738,42.9821964 45.782607,43.3333879 46.6665143,43.3333879 L46.6665143,44.1667236 L45.8331881,44.1667141 Z M46.6255999,41.6667069 C46.1907034,41.6559183 45.777388,41.4758588 45.4734062,41.1644769 C45.1698339,40.8530951 44.9998143,40.434932 44.9998143,39.9999974 L44.9998143,39.9691193 C45.4056917,40.064729 45.7754832,40.2760439 46.0641983,40.5770067 C46.3525134,40.8783504 46.5478283,41.2566943 46.6255809,41.6666288 L46.6255999,41.6667069 Z M28.4903102,33.7500177 L32.7812748,37.5000284 L22.4993407,37.5000284 L22.4993407,33.3333499 L27.3937356,33.3333499 C27.7973844,33.334838 28.1872617,33.4829027 28.4901197,33.7500177 L28.4903102,33.7500177 Z M13.6188393,33.3333499 L14.8547476,33.3333499 L11.2833088,37.5000284 L8.26139545,37.5000284 L13.6188393,33.3333499 Z M1.66642429,40.6008944 L5.96738892,39.1666998 L10.8331171,39.1666998 L10.8331171,42.5000426 C9.87292385,42.5011587 8.94244501,42.8333769 8.19882384,43.4405215 C7.45477411,44.0476661 6.94320122,44.8929066 6.7497721,45.8333855 L5.15976757,45.8333855 L1.66642429,44.4360482 L1.66642429,40.6008944 Z" id="Shape"></path>
            <polygon id="Path" points="40.8332691 13.3331977 42.4999406 13.3331977 42.4999406 19.9998833 40.8332691 19.9998833"></polygon>
            <polygon id="Path" points="40.8332691 9.99985488 42.4999406 9.99985488 42.4999406 11.6665263 40.8332691 11.6665263"></polygon>
            <polygon id="Path" points="10.8331837 24.1665619 12.4998551 24.1665619 12.4998551 28.3332404 10.8331837 28.3332404"></polygon>
            <polygon id="Path" points="10.8331837 20.8332191 12.4998551 20.8332191 12.4998551 22.4998905 10.8331837 22.4998905"></polygon>
            <polygon id="Path" points="9.99984802 0.833162112 11.6665194 0.833162112 11.6665194 2.49983352 9.99984802 2.49983352"></polygon>
            <path d="M20.8331646,9.16651917 C20.8331646,9.82946392 21.0966034,10.4656657 21.5653571,10.9343337 C22.0341109,11.4030017 22.6703127,11.6664787 23.3331646,11.6664787 L24.1665074,11.6664787 C24.6266992,11.6664787 24.9998431,12.0396226 24.9998431,12.4998144 C24.9998431,12.9600062 24.6266992,13.3331501 24.1665074,13.3331501 L20.8331646,13.3331501 L20.8331646,14.9998215 L24.1665074,14.9998215 C25.0597385,14.9998215 25.8848932,14.5232582 26.3316564,13.7498179 C26.7780863,12.9763776 26.7780863,12.0232416 26.3316564,11.2498108 C25.8848552,10.4763705 25.059748,9.99980726 24.1665074,9.99980726 L23.3331646,9.99980726 C22.8729799,9.99980726 22.499836,9.62666334 22.499836,9.16646443 C22.499836,8.70627977 22.8729799,8.33313585 23.3331646,8.33313585 L26.6665145,8.33313585 L26.6665145,6.66646443 L23.3331646,6.66646443 C22.670227,6.66646443 22.0340251,6.92985566 21.5653571,7.39860938 C21.0966891,7.86736309 20.8331646,8.5035649 20.8331646,9.16642393 L20.8331646,9.16651917 Z" id="Path"></path>
            <path d="M23.3332193,3.33316923 C21.3439756,3.33316923 19.4362558,4.12335243 18.0299661,5.52993739 C16.6232954,6.93622711 15.833198,8.84394682 15.833198,10.8331906 C15.833198,12.8224343 16.6233812,14.7301541 18.0299661,16.1364438 C19.4362558,17.5431144 21.3439756,18.3332119 23.3332193,18.3332119 C25.3224631,18.3332119 27.2301828,17.5430287 28.6364725,16.1364438 C30.0431432,14.7301541 30.8332407,12.8224343 30.8332407,10.8331906 C30.8310085,8.84470873 30.040086,6.93841759 28.6341868,5.53222311 C27.2278971,4.12631435 25.3217012,3.33545495 23.3332193,3.33316923 Z M23.3332193,16.6665405 C21.7859768,16.6665405 20.3023535,16.0519578 19.2085409,14.957869 C18.1144426,13.8641516 17.4998694,12.3805283 17.4998694,10.8331906 C17.4998694,9.28585284 18.1144521,7.80232481 19.2085409,6.70851217 C20.3022583,5.61441382 21.7858816,4.99984064 23.3332193,4.99984064 C24.8805571,4.99984064 26.3640851,5.61442334 27.4578977,6.70851217 C28.5519961,7.80222957 29.1665693,9.28585284 29.1665693,10.8331906 C29.1647092,12.3796712 28.5497485,13.8626278 27.455993,14.9559642 C26.3626565,16.0496816 24.8796999,16.6646358 23.3332193,16.6665405 L23.3332193,16.6665405 Z" id="Shape"></path>
            <path d="M37.0389726,14.4227246 C37.6535553,12.0692893 37.6535553,9.59756802 37.0389726,7.24413275 C36.9377819,6.86913168 36.8135244,6.50082587 36.6665716,6.14108199 L36.6665716,0.833447827 L34.9999001,0.833447827 L34.9999001,3.41678852 C33.0869423,1.23630612 30.3242678,-0.00960219208 27.4239738,5.5735506e-05 L23.6665345,5.5735506e-05 C23.6099868,5.5735506e-05 23.5549247,0.00755261866 23.4998674,0.00829671602 C23.4448082,0.0094127192 23.3882576,5.5735506e-05 23.3332003,5.5735506e-05 C20.72605,0.00457641971 18.2078523,0.948771965 16.2401325,2.65897683 C14.2721268,4.36917218 12.9867899,6.73155986 12.618884,9.31261483 C12.6047469,9.41343416 12.5846573,9.51351064 12.5731249,9.61581569 C12.5508029,9.81001624 12.5429905,10.0083025 12.5314581,10.2058459 C12.5232736,10.3501892 12.5039285,10.4908182 12.5013237,10.6366472 L12.5013237,10.7382094 C12.5013237,10.7724361 12.4998356,10.8010819 12.4998356,10.8334477 C12.4998356,10.9692386 12.5147166,11.1016771 12.5199252,11.2359822 C12.5273656,11.4402209 12.5325738,11.6444691 12.5515472,11.8468506 C12.5649396,11.9911939 12.5883778,12.1325657 12.6073512,12.2761661 C12.6363693,12.4986334 12.6665028,12.7218531 12.7089134,12.9428347 C12.7304906,13.0496064 12.7587649,13.1526543 12.7829459,13.2586832 C12.8406099,13.5086839 12.9005082,13.7586846 12.9763941,14.0086853 C12.9964837,14.0737893 13.0206647,14.1362857 13.0414981,14.2002764 C13.1330165,14.4811534 13.2316034,14.7586875 13.3458133,15.0336121 C13.3573457,15.0618864 13.372599,15.0886722 13.3841315,15.1169456 C13.5124842,15.4153084 13.6523608,15.7084616 13.8082374,15.9953005 L13.8156779,16.0094377 C14.2967079,16.8956021 14.8986334,17.7102997 15.6039687,18.4309684 C17.6367364,20.5105934 20.4250301,21.6780253 23.3331336,21.6668824 L23.3331336,23.4027921 L24.999805,23.4027921 L24.999805,21.6668824 L27.4239072,21.6668824 C29.6017229,21.690692 31.7260146,20.9927757 33.4652577,19.6824958 C35.2045007,18.3718254 36.461171,16.5224868 37.0388869,14.4227665 L37.0389726,14.4227246 Z M23.3332193,20.0002306 C23.0207232,20.0002306 22.7082175,19.984449 22.3972071,19.9524546 C19.389389,19.6399585 16.7279529,17.866163 15.2814726,15.2098697 L15.2732881,15.1964773 C15.1434496,14.9565242 15.0232874,14.7080092 14.9157728,14.4557799 C14.905728,14.4308542 14.8923356,14.4066731 14.8822908,14.3817474 C14.7863096,14.1551848 14.7040903,13.9208127 14.6263377,13.6849454 C14.6081081,13.6291414 14.5861585,13.5740784 14.5686737,13.5182782 C14.5061735,13.3125443 14.456321,13.1016104 14.4068447,12.8906764 C14.3860113,12.7991581 14.3610855,12.7080093 14.3428559,12.615009 C14.3071415,12.4342085 14.2837043,12.2481889 14.2595223,12.0632931 C14.2427813,11.9382928 14.2219479,11.8132924 14.2104155,11.6882921 C14.1944183,11.5216249 14.1910698,11.3549578 14.1847459,11.1882906 C14.1799096,11.0432045 14.1698649,10.8992232 14.1712046,10.7522799 C14.1728416,10.6056985 14.1854907,10.4647076 14.1929307,10.3207358 C14.2029755,10.1466305 14.2096717,9.97140146 14.2297613,9.8006486 C14.239062,9.72401124 14.2539433,9.64885769 14.2647319,9.57297176 L14.2647319,9.57334376 C14.6252281,7.37990894 15.7491171,5.38437945 17.4380742,3.939042 C19.1266505,2.49408551 21.2721804,1.69198799 23.4950439,1.67494032 C26.7044816,1.79584542 29.6170613,3.5882791 31.1714467,6.39895377 C32.7261178,9.21000939 32.6960224,12.6292572 31.0922055,15.412408 C29.4880105,18.1955588 26.5445735,19.9358495 23.333231,20.0002306 L23.3332193,20.0002306 Z M29.4663796,19.7501398 C32.408388,17.7336864 34.1668692,14.3966293 34.1668692,10.8300477 C34.1668692,7.26346613 32.4082928,3.92640901 29.4663796,1.91002232 C31.9142914,2.49335732 33.9563924,4.17345734 34.9999192,6.46327338 L34.9999192,6.6667692 L35.0832528,6.6667692 C35.2209008,6.9919225 35.3358535,7.32599965 35.4273776,7.66677204 C35.9697886,9.74306367 35.9697886,11.9238318 35.4273776,14.0001234 C35.0438241,15.4067941 34.2874695,16.6831787 33.2384189,17.6954673 C32.1892731,18.7077559 30.8861265,19.4175674 29.4665034,19.7501398 L29.4663796,19.7501398 Z" id="Shape"></path>
            <path d="M39.1665977,35.0694903 C39.3875793,35.0716823 39.5992656,34.9809079 39.7499327,34.8194494 L39.754769,34.8242857 L42.2547761,32.3242786 L41.0765823,31.1460848 L39.9999126,32.2245641 L39.9999126,30.0694151 L38.3332412,30.0694151 L38.3332412,32.2245641 L37.2559048,31.1472277 L36.07733,32.3254215 L38.57733,34.8254286 C38.7335852,34.9816767 38.9456429,35.0694903 39.1666245,35.0694903 L39.1665977,35.0694903 Z" id="Path"></path>
            <polygon id="Path" points="38.333262 26.736093 39.9999334 26.736093 39.9999334 28.4726694 38.333262 28.4726694"></polygon>
            <polygon id="Path" points="38.333262 23.3332262 39.9999334 23.3332262 39.9999334 25.0691359 38.333262 25.0691359"></polygon>
            <path d="M7.4998409,14.6551062 L6.4225045,13.5773889 L5.24392972,14.7559637 L7.74392972,17.2559708 C7.9001849,17.4122188 8.11224264,17.5000593 8.33322423,17.5000593 C8.55420581,17.5022513 8.76589212,17.4114769 8.91655922,17.2500184 L8.92139552,17.2548547 L11.4214026,14.7548476 L10.2432088,13.5766537 L9.16653907,14.655133 L9.16653907,12.499984 L7.49986766,12.499984 L7.4998409,14.6551062 Z" id="Path"></path>
            <polygon id="Path" points="7.4998409 9.16651917 9.16651231 9.16651917 9.16651231 10.9024289 7.4998409 10.9024289"></polygon>
        </g>
    </g>
</svg>