<?xml version="1.0" encoding="UTF-8"?>
<svg width="50px" height="34px" viewBox="0 0 50 34" version="1.1" xmlns="http://www.w3.org/2000/svg" xmlns:xlink="http://www.w3.org/1999/xlink">
    <title>Shape</title>
    <g id="Page-1" stroke="none" stroke-width="1" fill="none" fill-rule="evenodd">
        <g id="car-check" transform="translate(0.003700, 0.043157)" fill="#000000" fill-rule="nonzero">
            <path d="M48.0675489,11.0611249 C47.8575885,10.6324898 47.4219803,10.3607983 46.9452478,10.3607983 L42.4761324,10.3607983 C41.7855734,10.3607983 41.226155,10.9202167 41.226155,11.6107757 L41.226155,14.2585848 L39.4477944,14.2585848 L39.4477944,11.6044365 C39.4477944,10.916324 38.891858,10.3575841 38.2037098,10.3544591 L35.4491168,10.3415549 L33.7318265,6.44725044 C33.5323301,5.99420508 33.0834721,5.70193359 32.5881865,5.70193359 L25.8761652,5.70158484 L25.8761652,2.50030355 L29.4039584,2.50030355 C30.0945174,2.50030355 30.6539358,1.94088511 30.6539358,1.25032619 C30.6539358,0.559767271 30.0945174,0.000348832967 29.4039584,0.000348832967 L14.5720843,0 C13.8815253,0 13.3221069,0.559418438 13.3221069,1.24997736 C13.3221069,1.94053628 13.8815253,2.49995472 14.5720843,2.49995472 L18.8838811,2.49995472 L18.8838811,5.70123601 L13.0037198,5.70158484 C12.5527637,5.70158484 12.1366909,5.94467866 11.9152574,6.33703762 L10.6576016,8.56565796 L9.80102782,8.56565796 C7.53544386,8.56565796 5.69253081,10.408571 5.69253081,12.674155 L5.69253081,15.3997306 L2.8068688,15.3993819 C2.70049573,15.3993819 2.59900649,15.4168199 2.49995472,15.4419311 L2.49995472,8.73410616 C2.49995472,8.04354724 1.94053628,7.48412881 1.24997736,7.48412881 C0.559418438,7.48412881 0,8.04354724 0,8.73410616 L0,24.1365057 C0,24.8270647 0.559418438,25.3864831 1.24997736,25.3864831 C1.94053628,25.3864831 2.49995472,24.8270647 2.49995472,24.1365057 L2.49995472,17.8566195 C2.59831008,17.8817306 2.70049573,17.8991687 2.8068688,17.8991687 L5.69217368,17.8991687 L5.69252242,23.9582554 C5.69252242,26.2531245 7.55945289,28.1196979 9.85432203,28.1196979 L13.8647851,28.1196979 L18.5853246,32.8395231 C18.8196953,33.0738938 19.1374217,33.2053825 19.4694425,33.2053825 L38.1994604,33.2053825 C38.8900193,33.2053825 39.4494377,32.6459641 39.4494377,31.9554052 L39.4494377,28.3551132 L41.2277984,28.3516255 L41.2277984,30.7121185 C41.2277984,31.4016328 41.785824,31.9610244 42.4757222,31.9620959 L47.0396574,31.9701175 L47.04175,31.9701175 C47.5167682,31.9701175 47.9506621,31.7005242 48.1616404,31.2750229 C48.2366248,31.1229632 50,27.4901808 50,20.9966377 C49.9993025,15.0731736 48.147355,11.2218148 48.06816,11.0611034 L48.0675489,11.0611249 Z M21.3841037,2.4999407 L23.3765676,2.4999407 L23.3765676,5.70122199 L21.3841037,5.70122199 L21.3841037,2.4999407 Z M46.2006185,29.4682022 L43.726824,29.4636683 L43.726824,27.0994254 C43.726824,26.7673957 43.5949871,26.4489729 43.3602681,26.2146021 C43.1258974,25.9805796 42.808171,25.849448 42.4768466,25.849448 L42.474754,25.849448 L38.1964386,25.8571209 C37.5065761,25.8581671 36.9485148,26.417584 36.9485148,27.1070983 L36.9485148,30.7056938 L19.9863221,30.705345 L15.2657826,25.9855198 C15.0314118,25.7511491 14.7136854,25.6196604 14.3816647,25.6196604 L9.85362169,25.6196604 C8.93703115,25.6196604 8.19177679,24.8743435 8.19177679,23.9581726 L8.19177679,12.6735556 C8.19177679,11.7866431 8.91371961,11.0650133 9.80066783,11.0650133 L11.3872462,11.0650133 C11.8382023,11.0650133 12.2542752,10.8219195 12.4757087,10.4295605 L13.7333644,8.2009402 L31.7741091,8.20128903 L33.489703,12.09104 C33.6881548,12.5426925 34.134227,12.8346069 34.6270038,12.8370533 L36.9483903,12.8482138 L36.9483903,15.5082549 C36.9483903,16.1988138 37.5078088,16.7582322 38.1983677,16.7582322 L42.4766831,16.7582322 C43.167242,16.7582322 43.7266604,16.1988138 43.7266604,15.5082549 L43.7266604,12.8604457 L46.1135815,12.8604457 C46.5934835,14.1281906 47.4989135,17.0445663 47.4989135,20.9968162 C47.4989135,25.3002204 46.6538574,28.2141854 46.2004549,29.4683591 L46.2006185,29.4682022 Z" id="Shape"></path>
        </g>
    </g>
</svg>