<?xml version="1.0" encoding="UTF-8"?>
<svg width="51px" height="51px" viewBox="0 0 51 51" version="1.1" xmlns="http://www.w3.org/2000/svg" xmlns:xlink="http://www.w3.org/1999/xlink">
    <title>car-repairs</title>
    <g id="Page-1" stroke="none" stroke-width="1" fill="none" fill-rule="evenodd">
        <g id="car-repairs" transform="translate(0.745093, 0.750300)" fill="#000000" fill-rule="nonzero">
            <path d="M23.3873375,38.7092996 C21.1638553,38.7092996 19.3551159,40.518039 19.3551159,42.7415212 C19.3551159,44.9650034 21.1638553,46.7737428 23.3873375,46.7737428 C25.6108197,46.7737428 27.4195591,44.9650034 27.4195591,42.7415212 C27.4195591,40.518039 25.6108197,38.7092996 23.3873375,38.7092996 Z M23.3873375,45.1608542 C22.0534325,45.1608542 20.9680045,44.0754262 20.9680045,42.7415212 C20.9680045,41.4076162 22.0534325,40.3221883 23.3873375,40.3221883 C24.7212425,40.3221883 25.8066704,41.4076162 25.8066704,42.7415212 C25.8066704,44.0754262 24.7212425,45.1608542 23.3873375,45.1608542 Z" id="Shape"></path>
            <path d="M50,12.9030814 L37.9457312,12.9030814 C35.1401344,12.9030814 32.469836,14.2524702 30.8054271,16.5118967 L22.1354594,28.2776889 L17.3774379,28.9124021 C14.8450184,29.2504635 12.676651,30.6552435 11.2913179,32.6310781 L11.2909578,13.285631 C13.2915848,11.9437998 14.5167351,9.67607838 14.5167351,7.25748274 C14.5167351,4.64119304 13.1263329,2.21070811 10.8884729,0.914682971 L9.9142882,0.350171948 L8.95300658,5.15897638 L7.25799887,6.28836708 L5.56372848,5.15934504 L4.60244685,0.350171948 L3.62826211,0.914682971 C1.39040217,2.21070811 0,4.64128521 0,7.25748274 C0,9.67607838 1.22515021,11.9445371 3.22577727,13.285631 L3.22577727,33.5508855 C1.22515021,34.8927166 0,37.1604381 0,39.5790337 C0,42.1953234 1.39040217,44.6258083 3.62826211,45.9218335 L4.60244685,46.4863445 L5.56372848,41.6775401 L7.25799887,40.548518 L8.49254991,41.3718838 C8.22433114,41.7610693 8.06448927,42.2323277 8.06448927,42.7409959 L8.06448927,44.3538845 C8.06448927,45.6877895 9.14991724,46.7732175 10.4838222,46.7732175 L17.3562025,46.7732175 C18.6601538,48.71661 20.8764471,49.9989948 23.3869313,49.9989948 C25.8974155,49.9989948 28.114354,48.71661 29.4176602,46.7732175 L50,46.7732175 L50,12.9030814 Z M23.0269721,29.785878 L32.1033877,17.4680171 C33.4653108,15.6200154 35.6498994,14.5158779 37.946192,14.5158779 L48.3875722,14.5158779 L48.3875722,16.1287666 L38.3342069,16.1287666 C36.7987369,16.1287666 35.3399483,16.8682437 34.4319381,18.1059837 L30.2956621,23.7463935 C28.1495986,24.5456397 26.6133913,26.6099621 26.6133913,29.0318757 L26.6133913,36.2495062 C25.6399438,35.7631235 24.5472348,35.4833841 23.387614,35.4833841 C20.2345549,35.4833841 17.5520907,37.5074211 16.5530214,40.32205 L11.2909492,40.32205 L11.2909492,37.705023 C11.2909492,37.2888424 11.3305516,36.8809383 11.3996763,36.4817161 C12.1045916,36.8705421 12.8894324,37.0962728 13.7102545,37.0962728 C16.3787096,37.0962728 18.5489204,34.926062 18.5489204,32.2576068 C18.5489204,31.6246909 18.4092351,31.0122725 18.1673018,30.434121 L23.0269721,29.785878 Z M32.258225,24.9997462 L33.0646693,24.9997462 C33.9542742,24.9997462 34.6775579,25.72303 34.6775579,26.6126349 C34.6775579,27.5022397 33.9542742,28.2255235 33.0646693,28.2255235 L28.3073852,28.2255235 C28.6818057,26.3876599 30.3105007,24.9997462 32.258225,24.9997462 Z M33.0646693,23.3868576 L32.5591992,23.3868576 L35.7324424,19.0594313 C36.3379945,18.2346277 37.3107692,17.7417474 38.3339857,17.7417474 L48.387351,17.7417474 L48.387351,28.2255235 L35.842764,28.2255235 C36.1199781,27.748855 36.2909904,27.2030443 36.2909904,26.6126349 C36.2909904,24.8337569 34.844091,23.3868576 33.0652131,23.3868576 L33.0646693,23.3868576 Z M16.5394732,30.7384962 C16.7990469,31.2094043 16.9354972,31.7256762 16.9354972,32.2577451 C16.9354972,34.036623 15.4885979,35.4835224 13.70972,35.4835224 C13.0436799,35.4835224 12.4089944,35.271469 11.8692758,34.8916475 C12.7127981,32.9053982 14.416073,31.3529699 16.5394639,30.7384962 L16.5394732,30.7384962 Z M4.1137791,40.7070696 L3.48878936,43.8334929 C2.31082767,42.7660371 1.61304596,41.2201525 1.61304596,39.5798908 C1.61304596,37.5767753 2.69524816,35.704995 4.4363384,34.6962484 L4.83884167,34.4629602 L4.83884167,12.3746807 L4.4363384,12.1417519 C2.69524816,11.1336504 1.61304596,9.26196231 1.61304596,7.25884678 C1.61304596,5.61858512 2.31076315,4.07270049 3.48805204,3.00487605 L4.11304596,6.13129938 L7.2574373,8.22805461 L10.4018328,6.13129938 L11.0268226,3.00487605 C12.2055216,4.07270049 12.9032111,5.61858512 12.9032111,7.25884678 C12.9032111,9.26196231 11.8210089,11.1337426 10.0799187,12.1424892 L9.67741542,12.3757775 L9.67741542,40.2234518 L7.25808246,38.6105632 L4.1137791,40.7070696 Z M10.4839519,45.1612228 C10.0389697,45.1612228 9.67750758,44.7990418 9.67750758,44.3547785 L9.67750758,42.7418899 C9.67750758,42.2976266 10.0389697,41.9354456 10.4839519,41.9354456 L16.1766193,41.9354456 C16.1467375,42.2007796 16.1290972,42.4693578 16.1290972,42.7418899 C16.1290972,43.5911725 16.2831879,44.4029809 16.552485,45.1612228 L10.4839519,45.1612228 Z M23.387061,48.3870001 C20.2750154,48.3870001 17.7419508,45.8545806 17.7419508,42.7418899 C17.7419508,39.6291992 20.2750154,37.0967797 23.387061,37.0967797 C26.4991066,37.0967797 29.0321712,39.6291992 29.0321712,42.7418899 C29.0321712,45.8545806 26.4991066,48.3870001 23.387061,48.3870001 Z M30.2216536,45.1612228 C30.4909507,44.4030177 30.6450414,43.591191 30.6450414,42.7418899 C30.6450414,40.6001581 29.7064324,38.6772262 28.2257085,37.3477451 L28.2257085,29.8387808 L48.3868164,29.8387808 L48.3868164,45.1612228 L30.2216536,45.1612228 Z" id="Shape"></path>
            <path d="M40.3226682,33.8706337 C40.3226682,35.2045387 41.4080961,36.2899667 42.7420011,36.2899667 L44.3548898,36.2899667 C45.6887948,36.2899667 46.7742227,35.2045387 46.7742227,33.8706337 L46.7742227,31.4513008 L40.3226682,31.4513008 L40.3226682,33.8706337 Z M41.9355568,33.0641894 L45.1613341,33.0641894 L45.1613341,33.8706337 C45.1613341,34.314897 44.7998719,34.677078 44.3548898,34.677078 L42.7420011,34.677078 C42.297019,34.677078 41.9355568,34.314897 41.9355568,33.8706337 L41.9355568,33.0641894 Z" id="Shape"></path>
            <path d="M20.1615602,12.9030814 L22.2471635,12.9030814 L25.7084225,16.3643405 C26.0702441,16.7272404 26.5721105,16.9353307 27.0858294,16.9353307 C28.1590916,16.9353307 29.0324477,16.0619192 29.0324477,14.9887124 L29.0324477,12.9031091 L31.4517807,12.9031091 C33.6752629,12.9031091 35.4840023,11.0943697 35.4840023,8.8708875 L35.4840023,4.03222159 C35.4840023,1.8087394 33.6752629,-2.6194887e-15 31.4517807,-2.6194887e-15 L20.1615602,-2.6194887e-15 C17.938078,-2.6194887e-15 16.1293386,1.8087394 16.1293386,4.03222159 L16.1293386,8.8708875 C16.1293386,11.0943697 17.938078,12.9031091 20.1615602,12.9031091 L20.1615602,12.9030814 Z M17.7422273,4.03219394 C17.7422273,2.69828896 18.8276552,1.61286099 20.1615602,1.61286099 L31.4517807,1.61286099 C32.7856857,1.61286099 33.8711136,2.69828896 33.8711136,4.03219394 L33.8711136,8.87085985 C33.8711136,10.2047648 32.7856857,11.2901928 31.4517807,11.2901928 L27.4195591,11.2901928 L27.4195591,14.9886847 C27.4195591,15.2612168 27.0411754,15.4178237 26.8492877,15.2248577 L22.914669,11.2902389 L20.1616063,11.2902389 C18.8277013,11.2902389 17.7422273,10.2048109 17.7422273,8.87090594 L17.7422273,4.03219394 Z" id="Shape"></path>
            <polygon id="Path" points="31.2158381 3.79606705 30.0752954 2.65552437 24.1940583 8.53713015 22.3450428 6.68774596 21.2045001 7.82828864 24.1941505 10.8175704"></polygon>
            <polygon id="Path" points="6.4520068 12.0966371 8.06489544 12.0966371 8.06489544 13.7095258 6.4520068 13.7095258"></polygon>
            <polygon id="Path" points="6.4520068 15.3224144 8.06489544 15.3224144 8.06489544 16.935303 6.4520068 16.935303"></polygon>
            <polygon id="Path" points="6.4520068 18.5481917 8.06489544 18.5481917 8.06489544 20.1610803 6.4520068 20.1610803"></polygon>
            <polygon id="Path" points="32.258225 41.9350769 33.8711136 41.9350769 33.8711136 43.5479655 32.258225 43.5479655"></polygon>
            <polygon id="Path" points="35.4840023 41.9350769 37.0968909 41.9350769 37.0968909 43.5479655 35.4840023 43.5479655"></polygon>
            <polygon id="Path" points="38.7097795 41.9350769 40.3226682 41.9350769 40.3226682 43.5479655 38.7097795 43.5479655"></polygon>
        </g>
    </g>
</svg>