<?xml version="1.0" encoding="UTF-8"?>
<svg width="51px" height="39px" viewBox="0 0 51 39" version="1.1" xmlns="http://www.w3.org/2000/svg" xmlns:xlink="http://www.w3.org/1999/xlink">
    <title>car-mileage</title>
    <g id="Page-1" stroke="none" stroke-width="1" fill="none" fill-rule="evenodd">
        <g id="car-mileage" transform="translate(0.871310, 0.197940)" fill="#000000" fill-rule="nonzero">
            <path d="M50,22.0228664 C49.9810951,22.1011334 49.9705077,22.1827998 49.9705077,22.2674949 L49.9705077,31.0599131 C49.9705077,35.1793869 46.6061272,38.5312809 42.4697143,38.5312809 L7.50079338,38.5309028 C3.36438053,38.5309028 0,35.1790088 0,31.059535 L0,21.9910591 L0.646935201,21.2976142 C3.08944565,18.6773892 6.18086591,16.7599885 9.60642052,15.729999 C10.5051761,23.6649154 17.0584295,29.8426258 24.9851183,29.8426258 C32.9123879,29.8426258 39.4655639,23.6628827 40.3638162,15.7270952 C43.7916938,16.7563103 46.8716924,18.6672258 49.3233015,21.2980982 L50,22.0228664 Z" id="Path"></path>
            <path d="M28.5890738,18.3611334 C28.0585919,19.8750949 26.6433123,20.9624835 24.9854174,20.9624835 C23.3275226,20.9624835 21.9121945,19.8750949 21.3817611,18.3611334 L12.3405813,18.3611334 C14.1467652,23.8038837 19.1320651,27.7252194 24.9858046,27.7252194 C30.8395441,27.7252194 35.824844,23.8038837 37.6310279,18.3611334 L28.5890738,18.3611334 Z M19.6919241,25.1779774 C18.5243897,25.1779774 17.5745461,24.2281821 17.5745461,23.0605994 C17.5745461,21.8930166 18.5243413,20.9432214 19.6919241,20.9432214 C20.8595068,20.9432214 21.8093021,21.8930166 21.8093021,23.0605994 C21.8093021,24.2281821 20.8595068,25.1779774 19.6919241,25.1779774 Z M30.279298,25.1779774 C29.1117637,25.1779774 28.16192,24.2281821 28.16192,23.0605994 C28.16192,21.8930166 29.1117153,20.9432214 30.279298,20.9432214 C31.4468807,20.9432214 32.396676,21.8930166 32.396676,23.0605994 C32.396676,24.2281821 31.4468807,25.1779774 30.279298,25.1779774 Z" id="Shape"></path>
            <path d="M21.5172733,15.381801 C21.3932603,15.6540354 21.2979758,15.9417761 21.2367243,16.243494 L11.8166911,16.243494 C11.6866188,15.4695162 11.6185626,14.6743597 11.6185626,13.8625448 C11.6185626,11.5016321 12.191392,9.27613472 13.199022,7.32814697 L21.5172733,15.381801 Z" id="Path"></path>
            <path d="M26.6967428,17.0389216 C26.6967428,18.0352265 25.9291921,18.8451055 24.9858046,18.8451055 C24.1112476,18.8451055 23.389471,18.1486406 23.2889016,17.2539988 C23.2877673,17.2245065 23.2858768,17.1957711 23.2813395,17.1681692 C23.279071,17.1246872 23.2749118,17.0823397 23.2749118,17.0388615 C23.2749118,16.0437181 24.0424625,15.2338392 24.98585,15.2338392 C25.9292375,15.2338392 26.6967882,16.0437375 26.6967882,17.0388615 L26.6967428,17.0389216 Z" id="Path"></path>
            <path d="M38.3527272,13.8621286 C38.3527272,14.6742919 38.2850466,15.4691096 38.1545987,16.2430778 L28.7345655,16.2430778 C28.3746064,14.4603181 26.8312,13.1157468 24.9857175,13.1157468 C24.2106071,13.1157468 23.4899533,13.3528157 22.8872144,13.760417 L14.9905319,6.11443203 C16.7955542,5.57676805 18.6365842,5.18921287 20.4945531,4.94989834 L21.4462359,8.83116108 C21.5649639,9.3140007 21.9967541,9.63802971 22.4731279,9.63802971 C22.5566886,9.63802971 22.6413856,9.62744233 22.7260807,9.60740298 C23.294748,9.46750601 23.6418431,8.89505411 23.5019461,8.32749034 L22.6232367,4.74077302 C24.5829365,4.60843568 26.5532838,4.64133611 28.5084343,4.83832244 L27.6531685,8.32785816 C27.514404,8.89539289 27.8618766,9.46819325 28.4290339,9.6077708 C28.513729,9.62781015 28.5984241,9.63839753 28.6819867,9.63839753 C29.1583992,9.63839753 29.5913219,9.31435884 29.7100403,8.8315289 L30.620508,5.1178173 C32.2327159,5.3794623 33.8305982,5.75416319 35.3993454,6.24305246 L33.0490801,10.2090103 C32.7503821,10.7130189 32.9167427,11.3618319 33.4196188,11.6593779 C33.9224948,11.9580759 34.5724404,11.7917153 34.8699864,11.2888392 L36.9744907,7.73803263 C37.8562299,9.58583816 38.3527272,11.6653695 38.3527272,13.8622157 L38.3527272,13.8621286 Z" id="Path"></path>
            <path d="M34.0240806,3.6599965 C32.7177431,3.33293783 31.3955313,3.07658748 30.0634464,2.89357827 C29.9957658,2.87769818 29.9280891,2.86824523 29.8611654,2.86597637 C25.2271325,2.25420658 20.4947564,2.51888125 15.9459993,3.6599965 C18.3273357,1.38909675 21.5021927,-1.37553147e-15 24.98534,-1.37553147e-15 C28.4684873,-1.37553147e-15 31.6433443,1.38919355 34.0242935,3.6599965 L34.0240806,3.6599965 Z" id="Path"></path>
        </g>
    </g>
</svg>